<svg id="Layer_1" data-name="Layer 1" xmlns="http://www.w3.org/2000/svg" viewBox="0 0 259 125"><defs><style>.cls-1{fill:#f27d7e;}.cls-2{fill:#4dc1bd;}.cls-3{fill:#5c72b6;}.cls-4{fill:#ffca1a;}.cls-5{fill:#28b24b;}.cls-6{fill:#4d5359;}</style></defs><rect class="cls-1" x="61.83" y="52.08" width="5.1" height="34.02" rx="2.55" transform="translate(-19.75 26.19) rotate(-20)"/><rect class="cls-2" x="53.84" y="52.28" width="5.1" height="19.53" rx="2.55" transform="translate(31.5 -18.02) rotate(25)"/><path class="cls-3" d="M61.74,54.4l-.06-.11-.06-.11-.07-.11a.61.61,0,0,0-.07-.1l-.08-.1-.08-.09-.08-.09-.1-.09-.09-.07a.39.39,0,0,0-.1-.08l-.11-.08-.1-.06-.21-.11h0l-.22-.09-.12,0-.12,0-.14,0-.11,0-.13,0h-.62l-.14,0-.1,0-.24.08h0l-.23.09-.09,0-.13.07-.1.07-.11.07-.09.08-.1.08-.08.08-.1.1-.07.09-.09.11-.06.1a.61.61,0,0,0-.07.1,1.74,1.74,0,0,0-.1.19,2.58,2.58,0,0,0-.11,2l2.11,5.78,2.6-5.58a2.55,2.55,0,0,0,.08-2Z"/><rect class="cls-3" x="50.79" y="66.03" width="5.1" height="5.1" rx="2.55" transform="translate(33.98 -16.12) rotate(25)"/><rect class="cls-3" x="66.78" y="80.12" width="5.1" height="5.1" rx="2.55" transform="translate(-24.09 28.7) rotate(-20)"/><rect class="cls-4" x="67.89" y="38.9" width="5.1" height="34.02" rx="2.55" transform="translate(155.76 84.36) rotate(160)"/><rect class="cls-2" x="75.89" y="53.19" width="5.1" height="19.53" rx="2.55" transform="translate(122.92 153.16) rotate(-155)"/><path class="cls-5" d="M77.78,68.62l-2.1-5.78-2.6,5.58a2.51,2.51,0,0,0-.08,2,1.89,1.89,0,0,0,.09.21.54.54,0,0,1,0,.11l.07.11.07.11a.61.61,0,0,0,.07.1l.08.1.08.09.08.09.09.09.1.07a.39.39,0,0,0,.1.08l.11.08.1.06.21.12h0l.21.08.12,0,.12,0,.14,0L75,72l.13,0h.61l.15,0,.1,0,.24-.08h0l.23-.09.09,0,.13-.07.1-.07.11-.07.09-.08.1-.08.08-.08.1-.1.07-.09a.44.44,0,0,0,.08-.11.36.36,0,0,0,.07-.1.61.61,0,0,0,.07-.1,1.74,1.74,0,0,0,.1-.19A2.54,2.54,0,0,0,77.78,68.62Z"/><rect class="cls-5" x="78.94" y="53.87" width="5.1" height="5.1" rx="2.55" transform="translate(131.5 141.99) rotate(-155)"/><rect class="cls-5" x="62.95" y="39.78" width="5.1" height="5.1" rx="2.55" transform="matrix(-0.94, 0.34, -0.34, -0.94, 141.52, 59.7)"/><path class="cls-6" d="M103.37,70.62l-.16,0a6.62,6.62,0,0,1-3.94-2.49,7.85,7.85,0,0,1-1.64-4.93,7.57,7.57,0,0,1,1.66-4.94,6.71,6.71,0,0,1,4-2.47l.16,0a9.13,9.13,0,0,1,1.51-.13,7.61,7.61,0,0,1,1.52.15l.15,0a5,5,0,0,1,2.88,1.68V55.75H112V70.61h-2.52v-1.7a5,5,0,0,1-2.84,1.68l-.17,0a8.65,8.65,0,0,1-3.1,0Zm-3.22-7.45a5.54,5.54,0,0,0,1.39,3.77,4.34,4.34,0,0,0,3.39,1.3,4.28,4.28,0,0,0,3.37-1.3,5.44,5.44,0,0,0,1.18-3.75v0a5.44,5.44,0,0,0-1.18-3.75,4.29,4.29,0,0,0-3.37-1.31,4.35,4.35,0,0,0-3.39,1.31A5.53,5.53,0,0,0,100.15,63.17Zm61-7.56-5.49,15.15h-3l-5.43-15.15h2.68l4.25,11.85,4.28-11.85Zm15.39,8.6H165q0,.3.06.48a4.58,4.58,0,0,0,1.21,2.39,4.63,4.63,0,0,0,3.37,1.16,6.13,6.13,0,0,0,2.56-.5,3.87,3.87,0,0,0,1.68-1.42l2.27,1.11a6.22,6.22,0,0,1-2.62,2.45,8.35,8.35,0,0,1-3.89.88,6.91,6.91,0,0,1-5.22-2,7.58,7.58,0,0,1-2-5.43v-.13a7.79,7.79,0,0,1,1.92-5.52,6.68,6.68,0,0,1,5.15-2.07,6.61,6.61,0,0,1,6.94,6,12.31,12.31,0,0,1,.13,1.49Zm-2.65-2.34a2.05,2.05,0,0,0,0-.37l0-.11a4,4,0,0,0-4.36-3.29,4.41,4.41,0,0,0-3.17,1.09,4.32,4.32,0,0,0-1.19,2.2,3,3,0,0,0-.08.48Zm19,2.34H181.3c0,.2,0,.36.07.48a4.51,4.51,0,0,0,1.21,2.39A4.62,4.62,0,0,0,186,68.24a6.11,6.11,0,0,0,2.55-.5,3.81,3.81,0,0,0,1.68-1.42l2.27,1.11a6.25,6.25,0,0,1-2.61,2.45,8.38,8.38,0,0,1-3.89.88,6.93,6.93,0,0,1-5.23-2,7.62,7.62,0,0,1-2-5.43v-.13a7.79,7.79,0,0,1,1.92-5.52,6.69,6.69,0,0,1,5.15-2.07,6.92,6.92,0,0,1,4.66,1.58,7,7,0,0,1,2.29,4.38,12.3,12.3,0,0,1,.12,1.49Zm-2.64-2.34a1.4,1.4,0,0,0,0-.37l0-.11a4,4,0,0,0-4.36-3.29,4.38,4.38,0,0,0-3.16,1.09,4.33,4.33,0,0,0-1.2,2.2,4.79,4.79,0,0,0-.08.48Zm11.52-6.35a6.45,6.45,0,0,0-4,1.39V55.73h-2.47v15h2.47V62a4,4,0,0,1,8,0v8.77h2.47V62A6.47,6.47,0,0,0,201.74,55.52Zm-79.6,15.24a7.74,7.74,0,0,1-1.54-.14l-.17,0a5,5,0,0,1-2.84-1.68v6.2h-2.52V55.75h2.52v1.69a5,5,0,0,1,2.88-1.68l.14,0a7.78,7.78,0,0,1,1.53-.15,9.13,9.13,0,0,1,1.51.13l.16,0a6.71,6.71,0,0,1,4,2.47,7.57,7.57,0,0,1,1.66,4.94,7.8,7.8,0,0,1-1.65,4.93,6.56,6.56,0,0,1-3.93,2.49l-.16,0A7.81,7.81,0,0,1,122.14,70.76Zm3.39-11.35a4.35,4.35,0,0,0-3.39-1.31,4.29,4.29,0,0,0-3.37,1.31,5.39,5.39,0,0,0-1.18,3.75v0a5.39,5.39,0,0,0,1.18,3.75,4.28,4.28,0,0,0,3.37,1.3,4.34,4.34,0,0,0,3.39-1.3,5.79,5.79,0,0,0,0-7.53Zm13.33,11.35a7.67,7.67,0,0,1-1.54-.14l-.18,0a5,5,0,0,1-2.83-1.68v6.2h-2.52V55.75h2.52v1.69a5,5,0,0,1,2.88-1.68l.14,0a7.63,7.63,0,0,1,1.53-.15,9.22,9.22,0,0,1,1.51.13l.16,0a6.71,6.71,0,0,1,4,2.47,7.56,7.56,0,0,1,1.65,4.94,7.79,7.79,0,0,1-1.64,4.93,6.59,6.59,0,0,1-3.94,2.49l-.15,0A7.94,7.94,0,0,1,138.86,70.76Zm3.38-11.35a5,5,0,0,0-6.75,0,5.39,5.39,0,0,0-1.18,3.75v0a5.39,5.39,0,0,0,1.18,3.75,5,5,0,0,0,6.75,0,5.79,5.79,0,0,0,0-7.53Z"/></svg>